<?xml version="1.0" standalone="no"?>
<!DOCTYPE svg PUBLIC "-//W3C//DTD SVG 20010904//EN"
 "http://www.w3.org/TR/2001/REC-SVG-20010904/DTD/svg10.dtd">
<svg version="1.0" xmlns="http://www.w3.org/2000/svg"
 width="512.000000pt" height="512.000000pt" viewBox="0 0 512.000000 512.000000"
 preserveAspectRatio="xMidYMid meet">
<metadata>
Created by potrace 1.11, written by Peter Selinger 2001-2013
</metadata>
<g transform="translate(0.000000,512.000000) scale(0.100000,-0.100000)"
fill="#000000" stroke="none">
<path d="M2515 4664 c-190 -19 -417 -73 -615 -146 -551 -203 -1025 -499 -1319
-821 -177 -195 -267 -345 -321 -538 -24 -89 -25 -151 -4 -238 62 -251 258
-461 744 -801 223 -156 292 -209 285 -220 -3 -5 -45 -29 -93 -55 -245 -130
-425 -255 -564 -391 -94 -92 -148 -170 -177 -256 l-21 -61 52 -71 c79 -109
175 -221 284 -329 l99 -99 58 7 c131 14 283 81 401 175 141 114 252 277 301
445 50 169 44 442 -12 561 -13 25 -14 37 -5 46 13 13 276 167 280 164 1 -2 -9
-52 -23 -112 -63 -269 -36 -511 77 -696 52 -85 128 -117 222 -93 84 21 138 95
243 329 l58 130 6 -135 c4 -112 9 -141 28 -177 24 -47 72 -82 111 -82 44 1
104 35 150 87 81 90 312 533 466 892 l79 185 13 -60 c20 -94 60 -212 103 -304
23 -49 38 -93 35 -105 -3 -11 -57 -83 -120 -160 -282 -344 -295 -367 -237
-426 l32 -32 107 5 c81 4 125 12 180 31 155 55 269 146 320 254 24 52 27 69
27 168 -1 89 -5 120 -23 165 -12 30 -22 65 -22 77 0 12 33 73 73 135 41 62
109 177 151 256 43 78 82 142 86 142 4 0 13 -27 19 -61 16 -81 57 -201 92
-271 16 -32 29 -63 29 -70 0 -7 -32 -45 -71 -83 -150 -148 -229 -294 -230
-428 -1 -93 45 -147 125 -147 91 0 270 87 369 180 108 101 148 207 127 332
-25 143 -25 143 6 156 104 42 338 59 520 39 l72 -8 6 58 c4 32 9 72 12 89 l6
31 -71 11 c-164 28 -353 7 -545 -58 -86 -29 -90 -29 -109 -12 -40 35 -90 159
-108 266 -15 90 -6 192 26 289 47 144 33 163 -120 161 -159 -2 -176 -15 -214
-154 -11 -39 -29 -96 -41 -127 -36 -95 -277 -534 -297 -540 -6 -2 -22 22 -36
54 -70 159 -72 299 -6 491 22 64 19 84 -17 101 -33 14 -178 16 -230 2 -53 -14
-69 -33 -88 -106 -22 -85 -38 -124 -196 -481 -187 -423 -319 -694 -338 -694
-28 0 -6 143 67 429 51 203 67 280 61 297 -17 44 -103 69 -151 44 -18 -10 -19
-6 -19 87 -1 147 -44 222 -139 237 -121 19 -325 -98 -470 -270 -39 -46 -74
-69 -301 -193 -141 -78 -263 -141 -270 -141 -7 0 -43 28 -79 63 -37 34 -159
135 -271 223 -406 320 -512 471 -498 714 9 145 78 294 210 449 233 275 795
616 1268 769 243 78 440 108 670 99 161 -6 261 -27 361 -77 127 -65 172 -133
177 -273 5 -104 -6 -152 -59 -262 -188 -389 -718 -701 -1231 -722 -209 -9
-341 25 -452 114 -84 68 -82 67 -100 60 -41 -16 14 -129 100 -205 168 -150
440 -194 814 -131 539 91 949 378 1146 803 57 125 78 223 77 366 0 110 -4 134
-28 200 -81 221 -282 364 -607 430 -100 21 -378 35 -483 24z m-5 -2279 c27
-32 -25 -220 -147 -538 -151 -394 -210 -475 -256 -352 -24 63 -26 246 -3 350
24 111 74 238 130 330 72 120 120 173 180 201 60 28 79 30 96 9z m1737 -535
c-7 -104 -65 -189 -164 -239 -59 -29 -68 -14 -39 69 31 86 87 181 143 238 l45
47 10 -25 c5 -14 8 -54 5 -90z m-2825 -145 c13 -73 9 -235 -8 -299 -67 -257
-304 -480 -526 -494 -62 -4 -83 -1 -104 13 -112 73 -35 335 147 500 118 106
438 326 469 322 9 -1 18 -18 22 -42z m2067 -106 c-18 -33 -53 -79 -78 -101
-55 -48 -126 -91 -142 -86 -7 2 26 46 72 98 46 52 104 121 129 153 l45 58 3
-31 c2 -19 -8 -51 -29 -91z"/>
</g>
</svg>
